<svg width="388" height="133" viewBox="0 0 388 133" fill="none" xmlns="http://www.w3.org/2000/svg">
<path d="M151.392 116.476C151.392 118.816 150.456 119.44 148.116 120.064C143.748 121.156 136.728 122.404 127.368 122.404C105.372 122.404 91.02 108.364 91.02 82.936V69.832C91.02 44.404 105.372 30.364 127.368 30.364C136.728 30.364 143.748 31.612 148.116 32.704C150.456 33.328 151.392 33.952 151.392 36.292V50.176C151.392 51.736 149.988 52.828 148.428 52.828H148.116C142.344 52.204 137.976 51.736 129.084 51.736C122.064 51.736 116.292 55.948 116.292 69.832V82.936C116.292 96.82 122.064 101.032 129.084 101.032C137.976 101.032 142.344 100.564 148.116 99.94H148.428C149.988 99.94 151.392 101.032 151.392 102.592V116.476ZM218.727 118.036C218.727 119.596 217.635 120.844 215.763 121.156C211.083 121.936 207.963 122.404 203.439 122.404C186.279 122.404 177.231 117.88 177.231 95.728V50.488L164.751 48.46C163.035 48.148 161.475 46.9 161.475 45.184V34.888C161.475 33.172 163.035 31.612 164.751 31.612H177.231V18.82C177.231 17.104 178.635 16.012 180.351 15.7L199.383 12.424H199.851C201.411 12.424 202.659 13.516 202.659 15.076V31.612H215.451C217.167 31.612 218.571 33.016 218.571 34.732V47.368C218.571 49.084 217.167 50.488 215.451 50.488H202.659V95.884C202.659 102.124 203.127 103.216 207.807 103.216H215.451C217.479 103.216 218.727 104.152 218.727 105.868V118.036ZM259.427 18.352C259.427 20.068 258.023 21.472 256.307 21.472H236.027C234.311 21.472 232.907 20.068 232.907 18.352V3.84399C232.907 2.128 234.311 0.723996 236.027 0.723996H256.307C258.023 0.723996 259.427 2.128 259.427 3.84399V18.352ZM258.803 117.88C258.803 119.596 257.399 121 255.683 121H236.651C234.935 121 233.531 119.596 233.531 117.88V34.732C233.531 33.016 234.935 31.612 236.651 31.612H255.683C257.399 31.612 258.803 33.016 258.803 34.732V117.88ZM356.777 34.264C356.777 34.576 356.777 34.888 356.621 35.2L336.965 106.024C333.065 119.908 323.549 122.404 314.345 122.404C305.141 122.404 295.781 119.908 291.881 106.024L272.381 35.2C272.225 34.888 272.225 34.576 272.225 34.264C272.225 32.704 273.317 31.612 274.721 31.612H295.313C296.873 31.612 298.121 33.016 298.589 34.888L312.005 96.04C312.473 98.38 313.253 99.316 314.345 99.316C315.437 99.316 316.373 98.38 316.841 96.04L330.257 34.888C330.725 33.016 331.973 31.612 333.533 31.612H354.125C355.529 31.612 356.777 32.704 356.777 34.264Z" fill="#202426"/>
<path d="M0.0159984 117.736C0.0159984 117.424 0.0159984 117.112 0.171996 116.8L19.828 45.976C23.728 32.092 33.244 29.596 42.448 29.596C51.652 29.596 61.012 32.092 64.912 45.976L84.412 116.8C84.568 117.112 84.568 117.424 84.568 117.736C84.568 119.296 83.476 120.388 82.072 120.388H61.48C59.92 120.388 58.672 118.984 58.204 117.112L44.788 55.96C44.32 53.62 43.54 52.684 42.448 52.684C41.356 52.684 40.42 53.62 39.952 55.96L26.536 117.112C26.068 118.984 24.82 120.388 23.26 120.388H2.66799C1.26399 120.388 0.0159984 119.296 0.0159984 117.736Z" fill="#202426"/>
</svg>
