<svg width="226" height="102" viewBox="0 0 226 102" fill="none" xmlns="http://www.w3.org/2000/svg">
<path d="M96.608 79.024C96.608 80.56 96.224 81.136 94.592 81.52C92.384 82.096 88.064 82.768 82.208 82.768C69.728 82.768 60.32 75.088 60.32 59.44V50.512C60.32 34.864 69.728 27.184 82.208 27.184C88.064 27.184 92.384 27.856 94.592 28.432C96.224 28.816 96.608 29.392 96.608 30.928V37.168C96.608 38.128 95.84 38.608 94.88 38.608H94.592C90.752 38.128 88.448 37.936 82.208 37.936C77.696 37.936 72.992 40.528 72.992 50.512V59.44C72.992 69.424 77.696 72.016 82.208 72.016C88.448 72.016 90.752 71.824 94.592 71.344H94.88C95.84 71.344 96.608 71.824 96.608 72.784V79.024ZM137.386 80.368C137.386 81.328 136.81 81.904 135.562 82.096C133.258 82.48 131.146 82.768 129.034 82.768C118.186 82.768 113.77 80.368 113.77 67.504V37.36L104.746 36.016C103.69 35.824 102.826 35.152 102.826 34.096V29.776C102.826 28.72 103.69 27.856 104.746 27.856H113.77V19.984C113.77 18.928 114.634 18.256 115.69 18.064L124.618 16.528H125.002C125.866 16.528 126.538 17.008 126.538 17.968V27.856H135.178C136.234 27.856 137.098 28.72 137.098 29.776V35.44C137.098 36.496 136.234 37.36 135.178 37.36H126.538V67.504C126.538 72.304 126.826 72.88 130.282 72.88H135.37C136.618 72.88 137.386 73.36 137.386 74.32V80.368ZM159.301 18.736C159.301 19.792 158.437 20.656 157.381 20.656H148.069C147.013 20.656 146.053 19.792 146.053 18.736V10.288C146.053 9.232 147.013 8.368 148.069 8.368H157.381C158.437 8.368 159.301 9.232 159.301 10.288V18.736ZM159.013 79.984C159.013 81.04 158.149 82 157.093 82H148.261C147.205 82 146.341 81.04 146.341 79.984V29.776C146.341 28.72 147.205 27.856 148.261 27.856H157.093C158.149 27.856 159.013 28.72 159.013 29.776V79.984ZM216.092 29.392C216.092 29.584 216.092 29.872 215.996 30.064L203.9 73.744C201.98 80.848 196.796 82.768 191.9 82.768C187.004 82.768 181.916 80.848 179.996 73.744L167.9 30.064C167.804 29.872 167.804 29.584 167.804 29.392C167.804 28.528 168.476 27.856 169.34 27.856H178.94C179.804 27.856 180.572 28.528 180.86 29.776L190.076 70C190.46 71.824 191.132 72.4 191.9 72.4C192.668 72.4 193.34 71.824 193.724 70L202.94 29.776C203.228 28.528 204.092 27.856 204.956 27.856H214.556C215.42 27.856 216.092 28.528 216.092 29.392Z" fill="#202426"/>
<path d="M6.408 80.608C6.408 80.416 6.408 80.128 6.504 79.936L18.6 36.256C20.52 29.152 25.704 27.232 30.6 27.232C35.496 27.232 40.584 29.152 42.504 36.256L54.6 79.936C54.696 80.128 54.696 80.416 54.696 80.608C54.696 81.472 54.024 82.144 53.16 82.144H43.56C42.696 82.144 41.928 81.472 41.64 80.224L32.424 40C32.04 38.176 31.368 37.6 30.6 37.6C29.832 37.6 29.16 38.176 28.776 40L19.56 80.224C19.272 81.472 18.408 82.144 17.544 82.144H7.944C7.08 82.144 6.408 81.472 6.408 80.608Z" fill="#202426"/>
</svg>
